<svg xmlns="http://www.w3.org/2000/svg" width="30" height="30" viewBox="0 0 30 30">
  <g id="Group_10" data-name="Group 10" transform="translate(-46 -596)">
    <circle id="Ellipse_3" data-name="Ellipse 3" cx="15" cy="15" r="15" transform="translate(46 596)" fill="#fff2f2"/>
    <path id="Icon_ionic-ios-trophy" data-name="Icon ionic-ios-trophy" d="M23.185,6.274H19.933V5.288a.791.791,0,0,0-.788-.788H8.106a.791.791,0,0,0-.788.788v.986H4.065a.692.692,0,0,0-.69.69h0a7.82,7.82,0,0,0,1.114,4.455A4.013,4.013,0,0,0,7.263,13.4a.4.4,0,0,1,.306.241,5.356,5.356,0,0,0,2.518,2.572,9.5,9.5,0,0,0,2.548,1.064.4.4,0,0,1,.306.384v3.982a.4.4,0,0,1-.394.394H9.313a.707.707,0,0,0-.71.655.691.691,0,0,0,.69.724h8.653a.707.707,0,0,0,.71-.655.691.691,0,0,0-.69-.724H14.714a.4.4,0,0,1-.394-.394V17.672a.4.4,0,0,1,.306-.384,9.734,9.734,0,0,0,2.548-1.064,5.356,5.356,0,0,0,2.518-2.572A.4.4,0,0,1,20,13.41a4.013,4.013,0,0,0,2.774-1.986,7.93,7.93,0,0,0,1.1-4.46h0A.692.692,0,0,0,23.185,6.274ZM7.317,11.724a.2.2,0,0,1-.266.187,2.871,2.871,0,0,1-1.508-1.424,5.189,5.189,0,0,1-.744-2.4.4.4,0,0,1,.394-.429h1.73a.4.4,0,0,1,.394.394Zm14.389-1.237A2.871,2.871,0,0,1,20.2,11.912a.2.2,0,0,1-.266-.187V8.048a.4.4,0,0,1,.394-.394h1.73a.4.4,0,0,1,.394.429A5.249,5.249,0,0,1,21.707,10.487Z" transform="translate(47.625 597.5)" fill="#ff8bb5"/>
  </g>
</svg>
